<mxfile host="app.diagrams.net" modified="2021-03-01T10:52:43.873Z" agent="5.0 (Windows NT 10.0; Win64; x64) AppleWebKit/537.36 (KHTML, like Gecko) Chrome/88.0.4324.182 Safari/537.36" etag="ImieVZ9m3BhjySVW2cNO" version="14.4.3" type="github">
  <diagram id="C5RBs43oDa-KdzZeNtuy" name="Page-1">
    <mxGraphModel dx="2031" dy="1089" grid="1" gridSize="10" guides="1" tooltips="1" connect="1" arrows="1" fold="1" page="1" pageScale="1" pageWidth="827" pageHeight="1169" math="0" shadow="0">
      <root>
        <mxCell id="WIyWlLk6GJQsqaUBKTNV-0" />
        <mxCell id="WIyWlLk6GJQsqaUBKTNV-1" parent="WIyWlLk6GJQsqaUBKTNV-0" />
        <mxCell id="15P8djcenp5kE6ssFYup-12" style="edgeStyle=orthogonalEdgeStyle;rounded=0;orthogonalLoop=1;jettySize=auto;html=1;entryX=0.5;entryY=0;entryDx=0;entryDy=0;" edge="1" parent="WIyWlLk6GJQsqaUBKTNV-1" source="WIyWlLk6GJQsqaUBKTNV-6" target="15P8djcenp5kE6ssFYup-16">
          <mxGeometry relative="1" as="geometry">
            <mxPoint x="110" y="270" as="targetPoint" />
          </mxGeometry>
        </mxCell>
        <mxCell id="15P8djcenp5kE6ssFYup-47" style="edgeStyle=orthogonalEdgeStyle;rounded=0;orthogonalLoop=1;jettySize=auto;html=1;entryX=0.527;entryY=0.022;entryDx=0;entryDy=0;entryPerimeter=0;shadow=0;exitX=1;exitY=0.5;exitDx=0;exitDy=0;" edge="1" parent="WIyWlLk6GJQsqaUBKTNV-1" source="WIyWlLk6GJQsqaUBKTNV-6" target="15P8djcenp5kE6ssFYup-14">
          <mxGeometry relative="1" as="geometry">
            <Array as="points">
              <mxPoint x="539" y="70" />
            </Array>
          </mxGeometry>
        </mxCell>
        <mxCell id="WIyWlLk6GJQsqaUBKTNV-6" value="&lt;b&gt;SIGNUP&lt;br&gt;&lt;i&gt;(Opening&lt;br&gt;Screen)&lt;/i&gt;&lt;/b&gt;" style="rhombus;whiteSpace=wrap;html=1;shadow=1;fontFamily=Helvetica;fontSize=12;align=center;strokeWidth=1;spacing=6;spacingTop=-4;fillColor=#e1d5e7;strokeColor=#9673a6;" parent="WIyWlLk6GJQsqaUBKTNV-1" vertex="1">
          <mxGeometry x="230" y="20" width="170" height="100" as="geometry" />
        </mxCell>
        <mxCell id="15P8djcenp5kE6ssFYup-17" style="edgeStyle=orthogonalEdgeStyle;rounded=0;orthogonalLoop=1;jettySize=auto;html=1;entryX=1;entryY=0.25;entryDx=0;entryDy=0;" edge="1" parent="WIyWlLk6GJQsqaUBKTNV-1" source="15P8djcenp5kE6ssFYup-14" target="15P8djcenp5kE6ssFYup-16">
          <mxGeometry relative="1" as="geometry" />
        </mxCell>
        <mxCell id="15P8djcenp5kE6ssFYup-14" value="&lt;b&gt;LOGIN&lt;br&gt;&lt;i&gt;(For registered users)&lt;/i&gt;&lt;/b&gt;" style="html=1;whiteSpace=wrap;aspect=fixed;shape=isoRectangle;fillColor=#f8cecc;strokeColor=#b85450;sketch=0;shadow=1;" vertex="1" parent="WIyWlLk6GJQsqaUBKTNV-1">
          <mxGeometry x="460" y="120" width="150" height="90" as="geometry" />
        </mxCell>
        <mxCell id="15P8djcenp5kE6ssFYup-22" style="edgeStyle=orthogonalEdgeStyle;rounded=0;orthogonalLoop=1;jettySize=auto;html=1;exitX=0;exitY=0.75;exitDx=0;exitDy=0;entryX=0.5;entryY=0;entryDx=0;entryDy=0;" edge="1" parent="WIyWlLk6GJQsqaUBKTNV-1" source="15P8djcenp5kE6ssFYup-16" target="15P8djcenp5kE6ssFYup-28">
          <mxGeometry relative="1" as="geometry">
            <mxPoint x="120" y="500" as="targetPoint" />
          </mxGeometry>
        </mxCell>
        <mxCell id="15P8djcenp5kE6ssFYup-23" style="edgeStyle=orthogonalEdgeStyle;rounded=0;orthogonalLoop=1;jettySize=auto;html=1;exitX=0.375;exitY=1;exitDx=0;exitDy=0;shadow=0;entryX=0.5;entryY=0;entryDx=0;entryDy=0;" edge="1" parent="WIyWlLk6GJQsqaUBKTNV-1" source="15P8djcenp5kE6ssFYup-16" target="15P8djcenp5kE6ssFYup-29">
          <mxGeometry relative="1" as="geometry">
            <mxPoint x="260" y="540" as="targetPoint" />
          </mxGeometry>
        </mxCell>
        <mxCell id="15P8djcenp5kE6ssFYup-27" style="edgeStyle=orthogonalEdgeStyle;rounded=0;orthogonalLoop=1;jettySize=auto;html=1;exitX=1;exitY=0.75;exitDx=0;exitDy=0;entryX=0.5;entryY=0;entryDx=0;entryDy=0;" edge="1" parent="WIyWlLk6GJQsqaUBKTNV-1" source="15P8djcenp5kE6ssFYup-16" target="15P8djcenp5kE6ssFYup-31">
          <mxGeometry relative="1" as="geometry">
            <mxPoint x="600" y="550" as="targetPoint" />
          </mxGeometry>
        </mxCell>
        <mxCell id="15P8djcenp5kE6ssFYup-16" value="&lt;b&gt;HOME&lt;/b&gt;" style="shape=hexagon;perimeter=hexagonPerimeter2;whiteSpace=wrap;html=1;fixedSize=1;fillColor=#fff2cc;strokeColor=#d6b656;shadow=1;" vertex="1" parent="WIyWlLk6GJQsqaUBKTNV-1">
          <mxGeometry x="270" y="280" width="120" height="80" as="geometry" />
        </mxCell>
        <mxCell id="15P8djcenp5kE6ssFYup-39" style="edgeStyle=none;rounded=0;orthogonalLoop=1;jettySize=auto;html=1;exitX=1;exitY=0.25;exitDx=0;exitDy=0;entryX=0;entryY=0.25;entryDx=0;entryDy=0;shadow=0;strokeColor=#FFFF00;" edge="1" parent="WIyWlLk6GJQsqaUBKTNV-1" source="15P8djcenp5kE6ssFYup-28" target="15P8djcenp5kE6ssFYup-31">
          <mxGeometry relative="1" as="geometry" />
        </mxCell>
        <mxCell id="15P8djcenp5kE6ssFYup-40" style="edgeStyle=none;rounded=0;orthogonalLoop=1;jettySize=auto;html=1;entryX=0;entryY=0.25;entryDx=0;entryDy=0;shadow=0;strokeColor=#FFFF00;" edge="1" parent="WIyWlLk6GJQsqaUBKTNV-1" source="15P8djcenp5kE6ssFYup-28" target="15P8djcenp5kE6ssFYup-32">
          <mxGeometry relative="1" as="geometry" />
        </mxCell>
        <mxCell id="15P8djcenp5kE6ssFYup-42" style="edgeStyle=none;rounded=0;orthogonalLoop=1;jettySize=auto;html=1;exitX=1;exitY=0.75;exitDx=0;exitDy=0;entryX=0;entryY=0.5;entryDx=0;entryDy=0;shadow=0;strokeColor=#FFFF00;" edge="1" parent="WIyWlLk6GJQsqaUBKTNV-1" source="15P8djcenp5kE6ssFYup-28" target="15P8djcenp5kE6ssFYup-29">
          <mxGeometry relative="1" as="geometry" />
        </mxCell>
        <mxCell id="15P8djcenp5kE6ssFYup-28" value="&lt;b&gt;LESSONS&lt;/b&gt;" style="shape=hexagon;perimeter=hexagonPerimeter2;whiteSpace=wrap;html=1;fixedSize=1;fillColor=#ffe6cc;strokeColor=#d79b00;shadow=1;" vertex="1" parent="WIyWlLk6GJQsqaUBKTNV-1">
          <mxGeometry x="70" y="500" width="110" height="70" as="geometry" />
        </mxCell>
        <mxCell id="15P8djcenp5kE6ssFYup-33" style="edgeStyle=orthogonalEdgeStyle;rounded=0;orthogonalLoop=1;jettySize=auto;html=1;exitX=0.5;exitY=1;exitDx=0;exitDy=0;entryX=0.5;entryY=0;entryDx=0;entryDy=0;shadow=0;" edge="1" parent="WIyWlLk6GJQsqaUBKTNV-1" source="15P8djcenp5kE6ssFYup-29" target="15P8djcenp5kE6ssFYup-32">
          <mxGeometry relative="1" as="geometry" />
        </mxCell>
        <mxCell id="15P8djcenp5kE6ssFYup-37" style="edgeStyle=none;rounded=0;orthogonalLoop=1;jettySize=auto;html=1;exitX=1;exitY=0.25;exitDx=0;exitDy=0;entryX=0;entryY=0.5;entryDx=0;entryDy=0;shadow=0;strokeColor=#33FF99;" edge="1" parent="WIyWlLk6GJQsqaUBKTNV-1" source="15P8djcenp5kE6ssFYup-29" target="15P8djcenp5kE6ssFYup-31">
          <mxGeometry relative="1" as="geometry" />
        </mxCell>
        <mxCell id="15P8djcenp5kE6ssFYup-38" style="edgeStyle=none;rounded=0;orthogonalLoop=1;jettySize=auto;html=1;exitX=0;exitY=0.25;exitDx=0;exitDy=0;entryX=1;entryY=0.5;entryDx=0;entryDy=0;shadow=0;strokeColor=#66FF66;" edge="1" parent="WIyWlLk6GJQsqaUBKTNV-1" source="15P8djcenp5kE6ssFYup-29" target="15P8djcenp5kE6ssFYup-28">
          <mxGeometry relative="1" as="geometry" />
        </mxCell>
        <mxCell id="15P8djcenp5kE6ssFYup-29" value="&lt;b&gt;QUIZ&lt;/b&gt;" style="shape=hexagon;perimeter=hexagonPerimeter2;whiteSpace=wrap;html=1;fixedSize=1;fillColor=#ffe6cc;strokeColor=#d79b00;shadow=1;" vertex="1" parent="WIyWlLk6GJQsqaUBKTNV-1">
          <mxGeometry x="370" y="550" width="110" height="70" as="geometry" />
        </mxCell>
        <mxCell id="15P8djcenp5kE6ssFYup-43" style="edgeStyle=none;rounded=0;orthogonalLoop=1;jettySize=auto;html=1;exitX=0.375;exitY=1;exitDx=0;exitDy=0;shadow=0;entryX=1;entryY=0.25;entryDx=0;entryDy=0;strokeColor=#FF3399;" edge="1" parent="WIyWlLk6GJQsqaUBKTNV-1" source="15P8djcenp5kE6ssFYup-31" target="15P8djcenp5kE6ssFYup-32">
          <mxGeometry relative="1" as="geometry" />
        </mxCell>
        <mxCell id="15P8djcenp5kE6ssFYup-44" style="edgeStyle=none;rounded=0;orthogonalLoop=1;jettySize=auto;html=1;exitX=0.136;exitY=0.043;exitDx=0;exitDy=0;entryX=0.818;entryY=0;entryDx=0;entryDy=0;entryPerimeter=0;shadow=0;strokeColor=#FF3399;exitPerimeter=0;" edge="1" parent="WIyWlLk6GJQsqaUBKTNV-1" source="15P8djcenp5kE6ssFYup-31" target="15P8djcenp5kE6ssFYup-28">
          <mxGeometry relative="1" as="geometry" />
        </mxCell>
        <mxCell id="15P8djcenp5kE6ssFYup-45" style="edgeStyle=none;rounded=0;orthogonalLoop=1;jettySize=auto;html=1;exitX=0;exitY=0.75;exitDx=0;exitDy=0;entryX=1;entryY=0.5;entryDx=0;entryDy=0;shadow=0;strokeColor=#FF3399;" edge="1" parent="WIyWlLk6GJQsqaUBKTNV-1" source="15P8djcenp5kE6ssFYup-31" target="15P8djcenp5kE6ssFYup-29">
          <mxGeometry relative="1" as="geometry" />
        </mxCell>
        <mxCell id="15P8djcenp5kE6ssFYup-31" value="&lt;b&gt;SETTINGS&lt;/b&gt;" style="shape=hexagon;perimeter=hexagonPerimeter2;whiteSpace=wrap;html=1;fixedSize=1;fillColor=#ffe6cc;strokeColor=#d79b00;shadow=1;" vertex="1" parent="WIyWlLk6GJQsqaUBKTNV-1">
          <mxGeometry x="630" y="500" width="110" height="70" as="geometry" />
        </mxCell>
        <mxCell id="15P8djcenp5kE6ssFYup-34" style="rounded=0;orthogonalLoop=1;jettySize=auto;html=1;exitX=1;exitY=0.5;exitDx=0;exitDy=0;entryX=0.5;entryY=1;entryDx=0;entryDy=0;shadow=0;strokeColor=#66FFFF;" edge="1" parent="WIyWlLk6GJQsqaUBKTNV-1" source="15P8djcenp5kE6ssFYup-32" target="15P8djcenp5kE6ssFYup-31">
          <mxGeometry relative="1" as="geometry" />
        </mxCell>
        <mxCell id="15P8djcenp5kE6ssFYup-35" style="edgeStyle=none;rounded=0;orthogonalLoop=1;jettySize=auto;html=1;exitX=0;exitY=0.5;exitDx=0;exitDy=0;entryX=0.625;entryY=1;entryDx=0;entryDy=0;shadow=0;strokeColor=#66FFFF;" edge="1" parent="WIyWlLk6GJQsqaUBKTNV-1" source="15P8djcenp5kE6ssFYup-32" target="15P8djcenp5kE6ssFYup-28">
          <mxGeometry relative="1" as="geometry" />
        </mxCell>
        <mxCell id="15P8djcenp5kE6ssFYup-36" style="edgeStyle=none;rounded=0;orthogonalLoop=1;jettySize=auto;html=1;exitX=0.375;exitY=0;exitDx=0;exitDy=0;entryX=0.375;entryY=1;entryDx=0;entryDy=0;shadow=0;strokeColor=#66FFFF;" edge="1" parent="WIyWlLk6GJQsqaUBKTNV-1" source="15P8djcenp5kE6ssFYup-32" target="15P8djcenp5kE6ssFYup-16">
          <mxGeometry relative="1" as="geometry" />
        </mxCell>
        <mxCell id="15P8djcenp5kE6ssFYup-32" value="&lt;b&gt;GAME&lt;br&gt;SETTINGS&lt;/b&gt;" style="shape=hexagon;perimeter=hexagonPerimeter2;whiteSpace=wrap;html=1;fixedSize=1;fillColor=#d5e8d4;strokeColor=#82b366;perimeterSpacing=0;rounded=0;shadow=1;sketch=0;" vertex="1" parent="WIyWlLk6GJQsqaUBKTNV-1">
          <mxGeometry x="370" y="850" width="110" height="70" as="geometry" />
        </mxCell>
      </root>
    </mxGraphModel>
  </diagram>
</mxfile>
